<svg width="240" height="240" viewBox="0 0 240 240" fill="none" xmlns="http://www.w3.org/2000/svg">
<rect width="240" height="240" fill="#E63D77"/>
<g filter="url(#filter0_f_17_62)">
<path fill-rule="evenodd" clip-rule="evenodd" d="M120.807 18.7219C76.8467 18.7219 41.1685 54.4002 41.1685 98.361C41.1685 142.322 76.8467 178 120.807 178C164.768 178 200.447 142.322 200.447 98.361C200.447 54.4002 164.768 18.7219 120.807 18.7219ZM120.807 96.1278C122.041 96.1278 123.041 97.127 123.041 98.361C123.041 99.5949 122.041 100.594 120.807 100.594C119.574 100.594 118.574 99.5949 118.574 98.361C118.574 97.127 119.574 96.1278 120.807 96.1278Z" fill="black" fill-opacity="0.508571"/>
</g>
<path fill-rule="evenodd" clip-rule="evenodd" d="M119.639 17C75.6783 17 40 52.6783 40 96.639C40 140.6 75.6783 176.278 119.639 176.278C163.6 176.278 199.278 140.6 199.278 96.639C199.278 52.6783 163.6 17 119.639 17ZM119.639 94.4059C120.873 94.4059 121.872 95.4051 121.872 96.639C121.872 97.873 120.873 98.8722 119.639 98.8722C118.405 98.8722 117.406 97.873 117.406 96.639C117.406 95.4051 118.405 94.4059 119.639 94.4059Z" fill="black"/>
<path fill-rule="evenodd" clip-rule="evenodd" d="M119.639 67.6489C103.643 67.6489 90.6489 80.6428 90.6489 96.6391C90.6489 112.636 103.643 125.629 119.639 125.629C135.636 125.629 148.629 112.636 148.629 96.6391C148.629 80.6428 135.636 67.6489 119.639 67.6489ZM119.639 94.7289C120.696 94.7289 121.549 95.5827 121.549 96.6391C121.549 97.6956 120.696 98.5494 119.639 98.5494C118.583 98.5494 117.729 97.6956 117.729 96.6391C117.729 95.5827 118.583 94.7289 119.639 94.7289Z" fill="#333333"/>
<path fill-rule="evenodd" clip-rule="evenodd" d="M119.639 17C75.6783 17 40 52.6783 40 96.639C40 140.6 75.6783 176.278 119.639 176.278C163.6 176.278 199.278 140.6 199.278 96.639C199.278 52.6783 163.6 17 119.639 17ZM119.639 18.547C162.751 18.547 197.744 53.527 197.744 96.639C197.744 139.751 162.751 174.744 119.639 174.744C76.527 174.744 41.5336 139.751 41.5336 96.639C41.5336 53.527 76.527 18.547 119.639 18.547Z" fill="black"/>
<path fill-rule="evenodd" clip-rule="evenodd" d="M159.916 96.639C159.916 118.874 141.874 136.929 119.639 136.929V174.744C162.751 174.744 197.744 139.751 197.744 96.639H159.916Z" fill="url(#paint0_radial_17_62)"/>
<path fill-rule="evenodd" clip-rule="evenodd" d="M79.3622 96.639C79.3622 74.404 97.4042 56.3487 119.639 56.3487V18.5336C76.5271 18.5336 41.5337 53.5269 41.5337 96.639H79.3622Z" fill="url(#paint1_radial_17_62)"/>
<path fill-rule="evenodd" clip-rule="evenodd" d="M140.595 75.6833C129.029 64.1176 110.249 64.1176 98.6833 75.6833C87.1176 87.249 87.1176 106.029 98.6833 117.595C110.249 129.161 129.029 129.161 140.595 117.595C152.161 106.029 152.161 87.249 140.595 75.6833ZM139.672 76.606C150.729 87.6625 150.729 105.616 139.672 116.672C128.616 127.729 110.662 127.729 99.606 116.672C88.5495 105.616 88.5495 87.6625 99.606 76.606C110.662 65.5495 128.616 65.5495 139.672 76.606Z" fill="url(#paint2_radial_17_62)"/>
<path fill-rule="evenodd" clip-rule="evenodd" d="M135.981 80.2968C126.962 71.2771 112.316 71.2771 103.297 80.2968C94.2771 89.3165 94.2771 103.962 103.297 112.981C112.316 122.001 126.962 122.001 135.981 112.981C145.001 103.962 145.001 89.3165 135.981 80.2968V80.2968ZM121.218 95.06C122.091 95.9325 122.091 97.3456 121.218 98.2181C120.346 99.0906 118.933 99.0906 118.06 98.2181C117.187 97.3456 117.187 95.9325 118.06 95.06C118.933 94.1874 120.346 94.1874 121.218 95.06Z" fill="url(#paint3_radial_17_62)"/>
<path opacity="0.742574" fill-rule="evenodd" clip-rule="evenodd" d="M138.559 77.7189C135.519 74.679 131.927 72.5302 128.105 71.26L127.572 72.8581C131.152 74.0481 134.514 76.0706 137.361 78.9175C140.829 82.3855 143.067 86.6163 144.076 91.0743L145.722 90.7033C144.645 85.9441 142.262 81.4217 138.559 77.7189V77.7189Z" fill="white"/>
<path opacity="0.742574" fill-rule="evenodd" clip-rule="evenodd" d="M94.9353 92.4441L93.2611 92.1587C91.8676 100.412 94.3539 109.194 100.719 115.559C107.067 121.907 115.818 124.395 124.053 123.026L123.777 121.362C116.06 122.646 107.865 120.309 101.917 114.361C95.9543 108.397 93.6292 100.178 94.9353 92.4441V92.4441Z" fill="white"/>
<g clip-path="url(#clip0_17_62)">
<path d="M119.5 152C137.449 152 152 137.449 152 119.5C152 101.551 137.449 87 119.5 87C101.551 87 87 101.551 87 119.5C87 137.449 101.551 152 119.5 152Z" fill="white"/>
<path d="M132.074 118.254L124.561 113.586L118.982 110.118L113.733 106.853C113.516 106.719 113.267 106.645 113.013 106.638C112.758 106.632 112.506 106.694 112.283 106.818C112.06 106.941 111.875 107.122 111.745 107.342C111.616 107.561 111.548 107.811 111.547 108.066V130.873C111.548 131.128 111.616 131.378 111.745 131.597C111.875 131.817 112.06 131.998 112.283 132.121C112.506 132.245 112.758 132.307 113.013 132.301C113.267 132.295 113.516 132.22 113.733 132.086L132.067 120.686C132.275 120.558 132.446 120.379 132.565 120.167C132.684 119.954 132.747 119.715 132.747 119.471C132.748 119.228 132.687 118.988 132.569 118.775C132.451 118.562 132.281 118.383 132.074 118.254Z" fill="black"/>
</g>
<path d="M44.5547 204.596V212.484C44.2448 212.858 43.7663 213.264 43.1191 213.701C42.472 214.13 41.638 214.499 40.6172 214.809C39.5964 215.118 38.3613 215.273 36.9121 215.273C35.627 215.273 34.4557 215.064 33.3984 214.645C32.3411 214.216 31.4297 213.592 30.6641 212.771C29.9076 211.951 29.3242 210.949 28.9141 209.764C28.5039 208.57 28.2988 207.207 28.2988 205.676V204.432C28.2988 202.9 28.4948 201.538 28.8867 200.344C29.2878 199.15 29.8574 198.143 30.5957 197.322C31.334 196.502 32.2135 195.878 33.2344 195.449C34.2552 195.021 35.39 194.807 36.6387 194.807C38.3704 194.807 39.7923 195.089 40.9043 195.654C42.0163 196.21 42.8639 196.985 43.4473 197.979C44.0397 198.963 44.4043 200.093 44.541 201.369H40.5625C40.4622 200.695 40.2708 200.107 39.9883 199.605C39.7057 199.104 39.3001 198.712 38.7715 198.43C38.252 198.147 37.5775 198.006 36.748 198.006C36.0645 198.006 35.4538 198.147 34.916 198.43C34.3874 198.703 33.9408 199.109 33.5762 199.646C33.2116 200.184 32.9336 200.85 32.7422 201.643C32.5508 202.436 32.4551 203.356 32.4551 204.404V205.676C32.4551 206.715 32.5553 207.635 32.7559 208.438C32.9564 209.23 33.2526 209.9 33.6445 210.447C34.0456 210.985 34.5378 211.391 35.1211 211.664C35.7044 211.938 36.3835 212.074 37.1582 212.074C37.8053 212.074 38.3431 212.02 38.7715 211.91C39.209 211.801 39.5599 211.669 39.8242 211.514C40.0977 211.35 40.3073 211.195 40.4531 211.049V207.521H36.707V204.596H44.5547ZM54.4258 215.273C53.2773 215.273 52.2474 215.091 51.3359 214.727C50.4245 214.353 49.6497 213.838 49.0117 213.182C48.3828 212.525 47.8997 211.764 47.5625 210.898C47.2253 210.023 47.0566 209.094 47.0566 208.109V207.562C47.0566 206.441 47.2161 205.416 47.5352 204.486C47.8542 203.557 48.3099 202.75 48.9023 202.066C49.5039 201.383 50.2331 200.859 51.0898 200.494C51.9466 200.12 52.9128 199.934 53.9883 199.934C55.0365 199.934 55.9661 200.107 56.7773 200.453C57.5885 200.799 58.2676 201.292 58.8145 201.93C59.3704 202.568 59.7897 203.333 60.0723 204.227C60.3548 205.111 60.4961 206.095 60.4961 207.18V208.82H48.7383V206.195H56.627V205.895C56.627 205.348 56.5267 204.86 56.3262 204.432C56.1348 203.994 55.8431 203.648 55.4512 203.393C55.0592 203.137 54.5579 203.01 53.9473 203.01C53.4277 203.01 52.9811 203.124 52.6074 203.352C52.2337 203.579 51.9284 203.898 51.6914 204.309C51.4635 204.719 51.2904 205.202 51.1719 205.758C51.0625 206.305 51.0078 206.906 51.0078 207.562V208.109C51.0078 208.702 51.0898 209.249 51.2539 209.75C51.4271 210.251 51.6686 210.684 51.9785 211.049C52.2975 211.413 52.6803 211.696 53.127 211.896C53.5827 212.097 54.0977 212.197 54.6719 212.197C55.3828 212.197 56.0436 212.061 56.6543 211.787C57.2741 211.505 57.8073 211.081 58.2539 210.516L60.168 212.594C59.8581 213.04 59.4342 213.469 58.8965 213.879C58.3678 214.289 57.7298 214.626 56.9824 214.891C56.235 215.146 55.3828 215.273 54.4258 215.273ZM66.5938 203.365V215H62.6562V200.207H66.3477L66.5938 203.365ZM66.0195 207.084H64.9531C64.9531 205.99 65.0944 205.006 65.377 204.131C65.6595 203.247 66.056 202.495 66.5664 201.875C67.0768 201.246 67.6829 200.768 68.3848 200.439C69.0957 200.102 69.8887 199.934 70.7637 199.934C71.4564 199.934 72.0898 200.034 72.6641 200.234C73.2383 200.435 73.7305 200.754 74.1406 201.191C74.5599 201.629 74.8789 202.208 75.0977 202.928C75.3255 203.648 75.4395 204.527 75.4395 205.566V215H71.4746V205.553C71.4746 204.896 71.3835 204.386 71.2012 204.021C71.0189 203.657 70.75 203.402 70.3945 203.256C70.0482 203.101 69.6198 203.023 69.1094 203.023C68.5807 203.023 68.1204 203.128 67.7285 203.338C67.3457 203.548 67.0267 203.839 66.7715 204.213C66.5254 204.577 66.3385 205.006 66.2109 205.498C66.0833 205.99 66.0195 206.519 66.0195 207.084ZM85.2422 215.273C84.0938 215.273 83.0638 215.091 82.1523 214.727C81.2409 214.353 80.4661 213.838 79.8281 213.182C79.1992 212.525 78.7161 211.764 78.3789 210.898C78.0417 210.023 77.873 209.094 77.873 208.109V207.562C77.873 206.441 78.0326 205.416 78.3516 204.486C78.6706 203.557 79.1263 202.75 79.7188 202.066C80.3203 201.383 81.0495 200.859 81.9062 200.494C82.763 200.12 83.7292 199.934 84.8047 199.934C85.8529 199.934 86.7826 200.107 87.5938 200.453C88.4049 200.799 89.084 201.292 89.6309 201.93C90.1868 202.568 90.6061 203.333 90.8887 204.227C91.1712 205.111 91.3125 206.095 91.3125 207.18V208.82H79.5547V206.195H87.4434V205.895C87.4434 205.348 87.3431 204.86 87.1426 204.432C86.9512 203.994 86.6595 203.648 86.2676 203.393C85.8757 203.137 85.3743 203.01 84.7637 203.01C84.2441 203.01 83.7975 203.124 83.4238 203.352C83.0501 203.579 82.7448 203.898 82.5078 204.309C82.2799 204.719 82.1068 205.202 81.9883 205.758C81.8789 206.305 81.8242 206.906 81.8242 207.562V208.109C81.8242 208.702 81.9062 209.249 82.0703 209.75C82.2435 210.251 82.485 210.684 82.7949 211.049C83.1139 211.413 83.4967 211.696 83.9434 211.896C84.3991 212.097 84.9141 212.197 85.4883 212.197C86.1992 212.197 86.86 212.061 87.4707 211.787C88.0905 211.505 88.6237 211.081 89.0703 210.516L90.9844 212.594C90.6745 213.04 90.2507 213.469 89.7129 213.879C89.1842 214.289 88.5462 214.626 87.7988 214.891C87.0514 215.146 86.1992 215.273 85.2422 215.273ZM97.4922 203.434V215H93.5547V200.207H97.2598L97.4922 203.434ZM101.949 200.111L101.881 203.762C101.689 203.734 101.457 203.712 101.184 203.693C100.919 203.666 100.678 203.652 100.459 203.652C99.903 203.652 99.4199 203.725 99.0098 203.871C98.6087 204.008 98.2715 204.213 97.998 204.486C97.7337 204.76 97.5332 205.092 97.3965 205.484C97.2689 205.876 97.196 206.323 97.1777 206.824L96.3848 206.578C96.3848 205.621 96.4805 204.742 96.6719 203.939C96.8633 203.128 97.1413 202.422 97.5059 201.82C97.8796 201.219 98.3353 200.754 98.873 200.426C99.4108 200.098 100.026 199.934 100.719 199.934C100.938 199.934 101.161 199.952 101.389 199.988C101.617 200.016 101.803 200.057 101.949 200.111ZM107.965 200.207V215H104.014V200.207H107.965ZM103.768 196.352C103.768 195.777 103.968 195.303 104.369 194.93C104.77 194.556 105.308 194.369 105.982 194.369C106.648 194.369 107.181 194.556 107.582 194.93C107.992 195.303 108.197 195.777 108.197 196.352C108.197 196.926 107.992 197.4 107.582 197.773C107.181 198.147 106.648 198.334 105.982 198.334C105.308 198.334 104.77 198.147 104.369 197.773C103.968 197.4 103.768 196.926 103.768 196.352ZM117.33 212.197C117.813 212.197 118.242 212.106 118.615 211.924C118.989 211.732 119.281 211.468 119.49 211.131C119.709 210.785 119.823 210.379 119.832 209.914H123.537C123.528 210.953 123.25 211.878 122.703 212.689C122.156 213.492 121.423 214.125 120.502 214.59C119.581 215.046 118.551 215.273 117.412 215.273C116.264 215.273 115.261 215.082 114.404 214.699C113.557 214.316 112.85 213.788 112.285 213.113C111.72 212.43 111.296 211.637 111.014 210.734C110.731 209.823 110.59 208.848 110.59 207.809V207.412C110.59 206.364 110.731 205.389 111.014 204.486C111.296 203.575 111.72 202.782 112.285 202.107C112.85 201.424 113.557 200.891 114.404 200.508C115.252 200.125 116.245 199.934 117.385 199.934C118.597 199.934 119.659 200.166 120.57 200.631C121.491 201.096 122.211 201.761 122.73 202.627C123.259 203.484 123.528 204.5 123.537 205.676H119.832C119.823 205.184 119.718 204.737 119.518 204.336C119.326 203.935 119.044 203.616 118.67 203.379C118.305 203.133 117.854 203.01 117.316 203.01C116.742 203.01 116.273 203.133 115.908 203.379C115.544 203.616 115.261 203.944 115.061 204.363C114.86 204.773 114.719 205.243 114.637 205.771C114.564 206.291 114.527 206.838 114.527 207.412V207.809C114.527 208.383 114.564 208.934 114.637 209.463C114.71 209.992 114.846 210.461 115.047 210.871C115.257 211.281 115.544 211.605 115.908 211.842C116.273 212.079 116.747 212.197 117.33 212.197ZM141.133 198.498L135.719 215H131.357L138.754 195.094H141.529L141.133 198.498ZM145.631 215L140.203 198.498L139.766 195.094H142.568L150.006 215H145.631ZM145.385 207.59V210.803H134.871V207.59H145.385ZM155.762 194V215H151.811V194H155.762ZM159.016 194H162.953V211.609L162.557 215H159.016V194ZM172.318 207.453V207.74C172.318 208.843 172.2 209.855 171.963 210.775C171.735 211.696 171.38 212.493 170.896 213.168C170.413 213.833 169.812 214.353 169.092 214.727C168.381 215.091 167.542 215.273 166.576 215.273C165.674 215.273 164.89 215.091 164.225 214.727C163.568 214.362 163.017 213.847 162.57 213.182C162.124 212.516 161.764 211.737 161.49 210.844C161.217 209.951 161.012 208.975 160.875 207.918V207.289C161.012 206.232 161.217 205.257 161.49 204.363C161.764 203.47 162.124 202.691 162.57 202.025C163.017 201.36 163.568 200.845 164.225 200.48C164.881 200.116 165.656 199.934 166.549 199.934C167.524 199.934 168.372 200.12 169.092 200.494C169.821 200.859 170.423 201.378 170.896 202.053C171.38 202.718 171.735 203.511 171.963 204.432C172.2 205.343 172.318 206.35 172.318 207.453ZM168.381 207.74V207.453C168.381 206.852 168.335 206.286 168.244 205.758C168.162 205.22 168.016 204.751 167.807 204.35C167.597 203.939 167.31 203.616 166.945 203.379C166.59 203.142 166.13 203.023 165.564 203.023C165.027 203.023 164.571 203.115 164.197 203.297C163.824 203.479 163.514 203.734 163.268 204.062C163.031 204.391 162.853 204.783 162.734 205.238C162.616 205.685 162.543 206.177 162.516 206.715V208.506C162.543 209.226 162.661 209.864 162.871 210.42C163.09 210.967 163.418 211.4 163.855 211.719C164.302 212.029 164.881 212.184 165.592 212.184C166.148 212.184 166.608 212.074 166.973 211.855C167.337 211.637 167.62 211.327 167.82 210.926C168.03 210.525 168.176 210.055 168.258 209.518C168.34 208.971 168.381 208.378 168.381 207.74ZM183.516 211.459V200.207H187.453V215H183.748L183.516 211.459ZM183.953 208.424L185.115 208.396C185.115 209.381 185.001 210.297 184.773 211.145C184.546 211.983 184.204 212.712 183.748 213.332C183.292 213.943 182.718 214.421 182.025 214.768C181.333 215.105 180.517 215.273 179.578 215.273C178.858 215.273 178.193 215.173 177.582 214.973C176.98 214.763 176.461 214.439 176.023 214.002C175.595 213.555 175.258 212.986 175.012 212.293C174.775 211.591 174.656 210.748 174.656 209.764V200.207H178.594V209.791C178.594 210.229 178.644 210.598 178.744 210.898C178.854 211.199 179.004 211.445 179.195 211.637C179.387 211.828 179.61 211.965 179.865 212.047C180.13 212.129 180.421 212.17 180.74 212.17C181.551 212.17 182.189 212.006 182.654 211.678C183.128 211.35 183.461 210.903 183.652 210.338C183.853 209.764 183.953 209.126 183.953 208.424ZM194.398 203.27V215H190.447V200.207H194.152L194.398 203.27ZM193.852 207.084H192.758C192.758 206.054 192.881 205.106 193.127 204.24C193.382 203.365 193.751 202.609 194.234 201.971C194.727 201.324 195.333 200.822 196.053 200.467C196.773 200.111 197.607 199.934 198.555 199.934C199.211 199.934 199.812 200.034 200.359 200.234C200.906 200.426 201.376 200.731 201.768 201.15C202.169 201.561 202.479 202.098 202.697 202.764C202.916 203.42 203.025 204.208 203.025 205.129V215H199.088V205.566C199.088 204.892 198.997 204.372 198.814 204.008C198.632 203.643 198.372 203.388 198.035 203.242C197.707 203.096 197.311 203.023 196.846 203.023C196.335 203.023 195.889 203.128 195.506 203.338C195.132 203.548 194.822 203.839 194.576 204.213C194.33 204.577 194.148 205.006 194.029 205.498C193.911 205.99 193.852 206.519 193.852 207.084ZM202.656 206.633L201.248 206.811C201.248 205.844 201.367 204.947 201.604 204.117C201.85 203.288 202.21 202.559 202.684 201.93C203.167 201.301 203.764 200.813 204.475 200.467C205.186 200.111 206.006 199.934 206.936 199.934C207.646 199.934 208.294 200.038 208.877 200.248C209.46 200.449 209.957 200.772 210.367 201.219C210.786 201.656 211.105 202.23 211.324 202.941C211.552 203.652 211.666 204.523 211.666 205.553V215H207.715V205.553C207.715 204.869 207.624 204.35 207.441 203.994C207.268 203.63 207.013 203.379 206.676 203.242C206.348 203.096 205.956 203.023 205.5 203.023C205.026 203.023 204.611 203.119 204.256 203.311C203.9 203.493 203.604 203.748 203.367 204.076C203.13 204.404 202.952 204.787 202.834 205.225C202.715 205.653 202.656 206.122 202.656 206.633Z" fill="black"/>
<defs>
<filter id="filter0_f_17_62" x="33.7685" y="11.3219" width="174.078" height="174.078" filterUnits="userSpaceOnUse" color-interpolation-filters="sRGB">
<feFlood flood-opacity="0" result="BackgroundImageFix"/>
<feBlend mode="normal" in="SourceGraphic" in2="BackgroundImageFix" result="shape"/>
<feGaussianBlur stdDeviation="3.7" result="effect1_foregroundBlur_17_62"/>
</filter>
<radialGradient id="paint0_radial_17_62" cx="0" cy="0" r="1" gradientUnits="userSpaceOnUse" gradientTransform="translate(197.744 174.744) rotate(-45) scale(48.9694 110.458)">
<stop stop-color="white"/>
<stop offset="1" stop-color="white" stop-opacity="0"/>
</radialGradient>
<radialGradient id="paint1_radial_17_62" cx="0" cy="0" r="1" gradientUnits="userSpaceOnUse" gradientTransform="translate(41.5337 18.5336) rotate(135) scale(48.9694 110.458)">
<stop stop-color="white"/>
<stop offset="1" stop-color="white" stop-opacity="0"/>
</radialGradient>
<radialGradient id="paint2_radial_17_62" cx="0" cy="0" r="1" gradientUnits="userSpaceOnUse" gradientTransform="translate(119.639 96.6391) rotate(90) scale(82.335 24.4164)">
<stop stop-color="#6C6C6C"/>
<stop offset="1" stop-color="#3E3E3E"/>
</radialGradient>
<radialGradient id="paint3_radial_17_62" cx="0" cy="0" r="1" gradientUnits="userSpaceOnUse" gradientTransform="translate(119.639 96.639) rotate(90) scale(66.396 23.1115)">
<stop stop-color="#F26666"/>
<stop offset="1" stop-color="#E20A0A"/>
</radialGradient>
<clipPath id="clip0_17_62">
<rect width="65" height="65" fill="white" transform="translate(87 87)"/>
</clipPath>
</defs>
</svg>
