<svg width="22" height="26" viewBox="0 0 22 26" fill="none" xmlns="http://www.w3.org/2000/svg">
<path d="M20.5266 11.6156L13.0136 6.94776L7.43506 3.4798L2.18515 0.215025C1.96861 0.0806917 1.72006 0.00660188 1.46524 0.000421119C1.21042 -0.00575965 0.958567 0.0561931 0.73575 0.17987C0.512933 0.303546 0.327241 0.484454 0.197887 0.703876C0.0685322 0.923298 0.000214075 1.17326 0 1.42791V24.2353C0.000214075 24.49 0.0685322 24.7399 0.197887 24.9593C0.327241 25.1788 0.512933 25.3597 0.73575 25.4833C0.958567 25.607 1.21042 25.669 1.46524 25.6628C1.72006 25.6566 1.96861 25.5825 2.18515 25.4482L20.52 14.0478C20.7274 13.9198 20.8986 13.7412 21.0176 13.5287C21.1366 13.3162 21.1994 13.077 21.2 12.8335C21.2007 12.5901 21.1392 12.3505 21.0214 12.1373C20.9036 11.9242 20.7333 11.7447 20.5266 11.6156Z" fill="black"/>
</svg>
