<svg width="40" height="40" viewBox="0 0 50 50" fill="none" xmlns="http://www.w3.org/2000/svg">
<circle cx="25" cy="25.5" r="25" fill="#DFDEE3"/>
<path d="M24.3335 13.6135C22.8097 13.7997 21.524 14.405 20.4764 15.4293C19.7228 16.1396 19.1626 17.0227 18.8466 17.9983C18.5306 18.974 18.4688 20.0113 18.6668 21.0163C18.9526 22.3199 19.524 23.3442 20.4764 24.2753C21.2029 25.0121 22.106 25.5598 23.1039 25.8688C24.1018 26.1777 25.1628 26.2382 26.1907 26.0446C27.4764 25.7652 28.5716 25.2065 29.524 24.2753C30.2775 23.565 30.8377 22.682 31.1537 21.7063C31.4697 20.7307 31.5315 19.6933 31.3335 18.6884C31.143 17.8503 30.8097 17.0123 30.3335 16.3139C29.3519 14.9727 27.8899 14.0419 26.2383 13.7066C25.8573 13.6135 24.6668 13.567 24.3335 13.6135ZM22.4287 27.6275C20.2448 27.9001 18.2298 28.9188 16.7397 30.5034C15.2496 32.0881 14.3805 34.1368 14.2859 36.2874C14.2859 36.7995 14.2859 36.8461 14.3811 37.0323C14.4287 37.172 14.524 37.2651 14.6668 37.3117C14.8573 37.4048 14.9049 37.4048 25.0002 37.4048C35.0954 37.4048 35.143 37.4048 35.3335 37.3117C35.4764 37.2651 35.5716 37.172 35.6192 37.0323C35.7145 36.8461 35.7145 36.7995 35.7145 36.2874C35.5716 33.9595 34.6668 31.9575 33.0478 30.3279C31.524 28.7449 29.524 27.8138 27.3335 27.581C26.6192 27.5344 23.0954 27.5344 22.4287 27.6275Z" fill="#C3C3CA"/>
</svg>
