<svg width="186" height="104" viewBox="0 0 186 104" fill="none" xmlns="http://www.w3.org/2000/svg">
<rect x="151.253" y="66.4286" width="34.7473" height="10.2198" fill="#00CBF7"/>
<rect x="151.253" y="79.7143" width="34.7473" height="10.2198" fill="#00CBF7"/>
<rect x="151.253" y="93" width="34.7473" height="10.2198" fill="#00CBF7"/>
<rect x="151.253" y="53.1429" width="34.7473" height="10.2198" fill="#99E7FB"/>
<rect x="151.253" y="39.8571" width="34.7473" height="10.2198" fill="#99E7FB"/>
<rect x="151.253" y="26.5714" width="34.7473" height="10.2198" fill="#99E7FB"/>
<rect x="151.253" y="13.2857" width="34.7473" height="10.2198" fill="#99E7FB"/>
<rect x="151.253" width="34.7473" height="10.2198" fill="#99E7FB"/>
<rect x="75.6264" y="66.4286" width="34.7473" height="10.2198" fill="#FF0090"/>
<rect x="75.6264" y="79.7143" width="34.7473" height="10.2198" fill="#FF0090"/>
<rect x="75.6264" y="93" width="34.7473" height="10.2198" fill="#FF0090"/>
<rect x="75.6264" y="53.1429" width="34.7473" height="10.2198" fill="#FF81C9"/>
<rect x="75.6264" y="39.8572" width="34.7473" height="10.2198" fill="#FF81C9"/>
<rect x="75.6264" y="26.5714" width="34.7473" height="10.2198" fill="#FF81C9"/>
<rect x="75.6263" y="13.2857" width="34.7473" height="10.2198" fill="#FF81C9"/>
<rect x="113.44" y="66.4286" width="34.7473" height="10.2198" fill="#A0DC00"/>
<rect x="113.44" y="79.7143" width="34.7473" height="10.2198" fill="#A0DC00"/>
<rect x="113.44" y="93" width="34.7473" height="10.2198" fill="#A0DC00"/>
<rect x="113.44" y="53.1429" width="34.7473" height="10.2198" fill="#D2EE7E"/>
<rect x="113.44" y="39.8571" width="34.7473" height="10.2198" fill="#D2EE7E"/>
<rect x="37.8132" y="66.4286" width="34.7473" height="10.2198" fill="#FFF200"/>
<rect x="37.8132" y="79.7143" width="34.7473" height="10.2198" fill="#FFF200"/>
<rect x="37.8132" y="93" width="34.7473" height="10.2198" fill="#FFF200"/>
<rect y="66.4286" width="34.7473" height="10.2198" fill="#FF151F"/>
<rect y="79.7143" width="34.7473" height="10.2198" fill="#FF151F"/>
<rect y="93" width="34.7473" height="10.2198" fill="#FF151F"/>
<rect y="53.1429" width="34.7473" height="10.2198" fill="#FF846B"/>
<rect y="39.8571" width="34.7473" height="10.2198" fill="#FF846B"/>
</svg>
